# xmcd CD database file
#
# Track frame offsets:
#	170
#	28820
#	62224
#	67328
#	113490
#	148437
#	155146
#	189602
#	221157
#	227135
#
# Disc length: 3409 seconds
#
# Revision: 0
# Processed by: cddbd v1.5.2PL0 Copyright (c) Steve Scherf et al.
# Submitted via: CDex 1.70beta2
#
DISCID=a50d4f0a
DTITLE=The International Hashva Orchestra - all's well
DYEAR=1999
DGENRE=Jazz
TTITLE0=begues
TTITLE1=sharp five
TTITLE2=duet I
TTITLE3=brad's delight
TTITLE4=damian
TTITLE5=duet II
TTITLE6=beef
TTITLE7=all's well
TTITLE8=duet III
TTITLE9=bless you
EXTD=YEAR: 1999
EXTT0=
EXTT1=
EXTT2=
EXTT3=
EXTT4=
EXTT5=
EXTT6=
EXTT7=
EXTT8=
EXTT9=
PLAYORDER=
